<?xml version="1.0" encoding="iso-8859-1"?>
<!-- Generator: Adobe Illustrator 19.0.0, SVG Export Plug-In . SVG Version: 6.00 Build 0)  -->
<svg version="1.1" id="Capa_1" xmlns="http://www.w3.org/2000/svg" xmlns:xlink="http://www.w3.org/1999/xlink" x="0px" y="0px"
	 viewBox="0 0 464.012 464.012" style="enable-background:new 0 0 464.012 464.012;" xml:space="preserve">
<path style="fill:#8ACED8;" d="M236.006,0.012c17.673,0,32,14.327,32,32v16l0,0h-64l0,0v-16
	C204.006,14.338,218.333,0.012,236.006,0.012z"/>
<path style="fill:#6FBBC6;" d="M236.006,40.012c97.202,0,176,78.798,176,176v48l0,0h-352l0,0v-48
	C60.006,118.809,138.804,40.012,236.006,40.012z"/>
<path style="fill:#3B869E;" d="M60.006,224.012h352v40h-352V224.012z"/>
<g>
	<path style="fill:#B3E4E8;" d="M95.038,214.564l15.736,2.896c0.944-5.128,2.136-10.272,3.56-15.272l-15.4-4.352
		C97.382,203.316,96.07,208.948,95.038,214.564L95.038,214.564z"/>
	<path style="fill:#B3E4E8;" d="M217.462,73.516c-51.752,17.31-93.126,56.735-112.912,107.592l14.912,5.808
		c18.059-46.434,55.836-82.429,103.088-98.224L217.462,73.516z"/>
</g>
<path style="fill:#FDC9A6;" d="M132.006,304.012l16,48l80,56v56h88v-64l40-56v-40c0-13.255-10.745-24-24-24s-24,10.745-24,24v24
	l-32,16h-40l-48-24l-10.704-24.104c-3.151-9.5-12.039-15.908-22.048-15.896c-12.84,0-23.248,10.408-23.248,23.248V304.012z"/>
<g>
	<path style="fill:#F7BA61;" d="M84.006,80.012c-3.445,0.001-6.503-2.204-7.592-5.472l-8-24c-0.956-2.875-0.207-6.043,1.936-8.184
		l12.504-12.512l-6.4-19.304c-1.396-4.197,0.875-8.732,5.072-10.128s8.732,0.875,10.128,5.072l8,24
		c0.956,2.875,0.207,6.043-1.936,8.184L85.158,50.18l6.4,19.304c1.396,4.192-0.87,8.722-5.062,10.118
		C85.693,79.869,84.853,80.008,84.006,80.012z"/>
	<path style="fill:#F7BA61;" d="M44.006,80.012c-3.445,0.001-6.503-2.204-7.592-5.472l-8-24c-0.956-2.875-0.207-6.043,1.936-8.184
		l12.504-12.512l-6.4-19.304c-1.396-4.197,0.875-8.732,5.072-10.128s8.732,0.875,10.128,5.072l8,24
		c0.956,2.875,0.207,6.043-1.936,8.184L45.158,50.18l6.4,19.304c1.396,4.192-0.87,8.722-5.062,10.118
		C45.693,79.869,44.853,80.008,44.006,80.012z"/>
</g>
<path style="fill:#8ACED8;" d="M36.006,248.012h400v32h-400V248.012z"/>
<g>
</g>
<g>
</g>
<g>
</g>
<g>
</g>
<g>
</g>
<g>
</g>
<g>
</g>
<g>
</g>
<g>
</g>
<g>
</g>
<g>
</g>
<g>
</g>
<g>
</g>
<g>
</g>
<g>
</g>
</svg>
