<?xml version="1.0" encoding="iso-8859-1"?>
<!-- Generator: Adobe Illustrator 19.0.0, SVG Export Plug-In . SVG Version: 6.00 Build 0)  -->
<svg version="1.1" id="Capa_1" xmlns="http://www.w3.org/2000/svg" xmlns:xlink="http://www.w3.org/1999/xlink" x="0px" y="0px"
	 viewBox="0 0 512 512" style="enable-background:new 0 0 512 512;" xml:space="preserve">
<path style="fill:#ECEFF1;" d="M80.002,0h320c8.832,0,16,7.168,16,16v416c0,44.192-35.808,80-80,80h-208c-35.36,0-64-28.64-64-64V16
	C64.002,7.168,71.17,0,80.002,0z"/>
<path style="fill:#CFD8DC;" d="M256.002,416c0,0,0,10.528,0,16c0,44.192,35.808,80,80,80h-256c-44.192,0-80-35.808-80-80v-16
	H256.002z"/>
<path style="fill:#4CAF50;" d="M288.002,48c0,63.584,51.168,101.76,95.296,95.296C389.762,99.168,351.586,48,288.002,48z"/>
<path style="fill:#388E3C;" d="M383.97,201.984c-7.936,0-14.816-5.888-15.84-13.984c-0.288-2.208-6.432-54.72,35.872-102.624
	c5.92-6.688,16-7.232,22.592-1.376c6.624,5.856,7.264,15.968,1.408,22.592c-32.832,37.152-28.192,76.96-28.128,77.344
	c1.12,8.768-5.088,16.768-13.856,17.92C385.346,201.952,384.674,201.984,383.97,201.984z"/>
<path style="fill:#4CAF50;" d="M489.314,188.32c-29.024-39.392-69.12-27.872-90.592-21.728c-5.568,1.6-11.84,3.392-14.72,3.392
	s-9.152-1.792-14.72-3.392c-21.472-6.144-61.6-17.696-90.592,21.728c-26.592,36.064-30.016,82.272-9.152,123.52
	C291.682,355.68,336.61,384,384.002,384c47.36,0,92.32-28.32,114.464-72.128C519.33,270.592,515.906,224.384,489.314,188.32z"/>
<g>
	<path style="fill:#90A4AE;" d="M240.002,96h-96c-8.832,0-16-7.168-16-16s7.168-16,16-16h96c8.832,0,16,7.168,16,16
		S248.834,96,240.002,96z"/>
	<path style="fill:#90A4AE;" d="M240.002,160h-96c-8.832,0-16-7.168-16-16s7.168-16,16-16h96c8.832,0,16,7.168,16,16
		S248.834,160,240.002,160z"/>
	<path style="fill:#90A4AE;" d="M208.002,224h-64c-8.832,0-16-7.168-16-16s7.168-16,16-16h64c8.832,0,16,7.168,16,16
		S216.834,224,208.002,224z"/>
</g>
<g>
</g>
<g>
</g>
<g>
</g>
<g>
</g>
<g>
</g>
<g>
</g>
<g>
</g>
<g>
</g>
<g>
</g>
<g>
</g>
<g>
</g>
<g>
</g>
<g>
</g>
<g>
</g>
<g>
</g>
</svg>
